<?xml version="1.0" standalone="no"?>
<!DOCTYPE svg PUBLIC "-//W3C//DTD SVG 20010904//EN"
 "http://www.w3.org/TR/2001/REC-SVG-20010904/DTD/svg10.dtd">
<svg version="1.0" xmlns="http://www.w3.org/2000/svg"
 width="1280.000000pt" height="1280.000000pt" viewBox="0 0 1280.000000 1280.000000"
 preserveAspectRatio="xMidYMid meet">
<metadata>
Created by potrace 1.15, written by Peter Selinger 2001-2017
</metadata>
<g transform="translate(0.000000,1280.000000) scale(0.100000,-0.100000)"
fill="#000000" stroke="none">
<path d="M6354 12791 c-30 -13 -62 -57 -73 -100 -5 -20 -14 -178 -20 -351 -6
-173 -16 -427 -21 -565 -13 -325 -67 -1764 -80 -2150 -6 -165 -13 -334 -16
-375 l-6 -74 -58 169 c-32 94 -78 224 -103 290 -70 186 -125 368 -154 505 -26
121 -27 136 -28 495 -1 360 -2 373 -28 487 -53 240 -87 320 -360 851 -36 70
-71 153 -78 185 -17 82 -6 211 25 301 34 97 34 154 1 186 -67 68 -187 -1 -254
-145 -54 -116 -65 -178 -65 -350 1 -189 23 -283 110 -478 106 -237 134 -310
163 -424 47 -180 55 -292 46 -618 -16 -582 -2 -702 134 -1130 82 -256 98 -311
121 -424 21 -105 20 -130 -3 -75 -8 19 -147 322 -309 674 -162 352 -492 1071
-733 1599 -319 695 -450 969 -475 998 -85 96 -220 37 -208 -91 3 -25 76 -237
163 -471 87 -234 296 -798 465 -1255 170 -456 371 -1001 449 -1209 77 -209
139 -381 138 -383 -2 -1 -29 29 -60 67 -32 38 -139 158 -239 267 -358 391
-455 537 -564 853 -145 420 -329 664 -764 1015 -288 233 -327 290 -354 526
-15 129 -29 163 -74 180 -36 14 -71 3 -109 -33 -49 -47 -68 -114 -67 -238 0
-160 51 -315 156 -477 64 -98 122 -163 260 -290 215 -198 313 -327 428 -566
38 -78 89 -200 114 -272 93 -262 109 -302 171 -430 98 -201 181 -318 466 -656
98 -117 177 -223 219 -294 l24 -40 -24 20 c-34 28 -545 501 -2279 2110 -177
165 -338 310 -356 323 -70 50 -157 36 -189 -32 -20 -43 -20 -69 1 -114 9 -19
192 -225 407 -456 215 -232 734 -792 1155 -1246 420 -454 783 -845 805 -868
l41 -44 -95 51 c-52 27 -189 93 -305 146 -473 217 -640 328 -858 574 -198 223
-346 338 -589 460 -152 76 -275 120 -623 226 -237 72 -321 136 -415 314 -72
138 -108 163 -179 126 -124 -64 -51 -341 143 -543 131 -137 261 -216 506 -307
250 -93 340 -140 495 -255 127 -95 240 -204 404 -389 273 -307 417 -416 855
-643 213 -111 434 -243 424 -253 -3 -3 -193 65 -424 151 -230 86 -466 173
-524 194 -58 21 -179 66 -270 100 -91 34 -212 79 -270 100 -58 21 -276 102
-485 180 -394 147 -1041 386 -1275 472 -115 42 -143 49 -188 46 -69 -6 -102
-37 -109 -99 -5 -50 18 -96 62 -125 14 -9 206 -99 428 -201 221 -102 780 -358
1242 -570 1627 -747 1539 -705 1465 -699 -36 3 -209 13 -384 21 -548 26 -685
54 -996 200 -237 111 -384 159 -590 190 -149 23 -419 21 -655 -4 -403 -44
-469 -29 -692 151 -80 66 -143 65 -178 -2 -30 -58 -9 -134 61 -223 83 -107
251 -207 439 -263 88 -26 98 -27 460 -34 321 -7 381 -11 457 -28 192 -46 359
-107 548 -202 282 -142 509 -218 757 -255 54 -8 205 -24 335 -35 236 -20 376
-40 453 -63 l40 -12 -40 -2 c-22 -1 -233 -9 -470 -18 -236 -8 -542 -20 -680
-25 -137 -6 -491 -19 -785 -30 -294 -11 -654 -24 -800 -30 -146 -5 -389 -15
-540 -20 -151 -6 -294 -15 -317 -21 -23 -6 -54 -24 -70 -41 -23 -24 -28 -38
-28 -79 0 -44 4 -54 32 -79 45 -40 82 -47 288 -54 182 -6 1192 -44 1895 -71
212 -8 585 -21 830 -30 245 -9 474 -18 510 -21 l64 -6 -169 -58 c-94 -32 -239
-83 -324 -114 -199 -73 -351 -119 -487 -147 -100 -21 -138 -23 -479 -24 -360
-1 -373 -2 -487 -28 -240 -53 -321 -88 -850 -360 -70 -36 -150 -70 -178 -76
-87 -19 -180 -13 -276 16 -49 15 -112 28 -141 31 -45 3 -55 1 -78 -22 -29 -29
-34 -81 -11 -125 22 -43 92 -100 160 -132 113 -52 176 -64 346 -63 189 1 283
23 478 110 239 107 317 137 428 165 183 46 276 52 719 44 531 -9 615 2 1072
149 251 80 505 143 478 118 -5 -5 -134 -65 -285 -134 -151 -70 -581 -267 -955
-438 -374 -172 -727 -334 -785 -360 -765 -346 -1249 -575 -1279 -604 -67 -67
-47 -172 39 -197 59 -18 85 -10 485 139 375 139 992 368 2159 801 401 149 731
270 732 268 1 -1 -30 -29 -69 -62 -39 -33 -159 -141 -266 -239 -388 -355 -529
-448 -851 -561 -254 -89 -442 -193 -627 -348 -118 -100 -222 -211 -395 -424
-159 -196 -214 -250 -302 -293 -64 -32 -186 -59 -266 -60 -124 -1 -177 -96
-98 -177 48 -49 114 -68 238 -67 153 1 292 44 450 140 102 61 183 133 319 279
133 143 216 217 334 296 147 100 372 204 602 279 117 38 265 99 367 151 179
92 300 180 621 451 118 100 250 199 301 225 l29 15 -19 -24 c-10 -13 -534
-579 -1164 -1258 -630 -679 -1174 -1265 -1208 -1303 -91 -99 -111 -157 -75
-218 37 -62 118 -74 186 -27 19 13 274 246 568 519 294 272 849 787 1234 1144
385 356 720 666 744 689 l44 41 -32 -57 c-17 -31 -92 -186 -166 -344 -212
-454 -304 -598 -494 -779 -336 -319 -413 -414 -539 -665 -76 -151 -117 -263
-227 -625 -73 -238 -136 -321 -314 -415 -138 -72 -163 -108 -126 -179 37 -73
172 -81 310 -17 104 48 188 110 273 201 128 137 176 222 277 491 70 186 109
267 183 380 112 170 210 277 457 498 219 196 355 353 475 551 24 39 97 174
163 300 110 213 242 433 252 423 3 -3 -148 -418 -336 -924 -990 -2672 -912
-2454 -907 -2512 4 -40 11 -60 30 -79 35 -35 101 -41 145 -14 51 32 -49 -178
901 1891 653 1423 624 1364 618 1290 -3 -36 -13 -207 -21 -380 -26 -550 -54
-689 -200 -1000 -111 -237 -159 -384 -190 -590 -23 -149 -21 -419 4 -655 43
-395 29 -466 -131 -664 -58 -72 -68 -90 -68 -123 0 -45 31 -83 76 -94 72 -18
193 49 281 156 66 79 143 233 179 355 26 88 27 99 34 460 7 319 11 382 28 455
48 204 89 314 216 580 190 396 233 561 276 1062 20 234 39 374 62 453 13 45
15 23 38 -590 6 -165 15 -412 20 -550 6 -137 24 -612 40 -1055 16 -443 34
-929 40 -1080 6 -151 15 -294 21 -317 6 -23 24 -54 41 -70 24 -23 38 -28 79
-28 44 0 54 4 79 32 16 18 33 49 39 70 5 21 28 542 50 1158 23 616 46 1224 51
1350 5 127 14 372 20 545 6 173 13 349 16 390 l6 74 58 -169 c32 -94 78 -224
103 -290 69 -186 125 -368 154 -505 26 -122 27 -135 28 -495 1 -361 2 -373 28
-487 54 -240 88 -321 360 -850 36 -70 70 -150 76 -178 19 -86 13 -180 -15
-276 -42 -143 -44 -154 -29 -190 16 -38 41 -54 85 -54 92 0 185 116 232 288
18 63 21 105 21 232 0 189 -21 282 -109 478 -106 237 -134 310 -163 424 -49
189 -54 269 -46 718 9 530 -2 613 -134 1030 -33 102 -69 217 -80 255 -25 86
-63 266 -57 272 2 3 13 -15 24 -39 10 -24 195 -425 410 -893 560 -1219 785
-1710 935 -2039 147 -321 175 -364 243 -373 83 -11 142 53 131 142 -2 22 -97
290 -210 595 -113 305 -352 949 -530 1430 -179 481 -359 967 -401 1079 -42
113 -74 206 -73 207 2 2 30 -29 63 -69 33 -40 134 -152 224 -250 367 -400 467
-550 576 -867 85 -247 194 -444 348 -627 95 -113 219 -229 436 -405 176 -144
222 -189 264 -260 40 -69 56 -124 71 -251 14 -126 29 -161 72 -178 38 -14 75
-3 111 34 118 122 83 433 -77 693 -66 106 -129 178 -270 309 -221 204 -316
329 -431 568 -38 78 -89 201 -114 272 -86 244 -108 300 -157 403 -97 206 -178
324 -429 623 -154 184 -221 272 -270 354 -21 34 -21 38 -5 25 18 -14 887 -818
1810 -1675 768 -713 828 -767 861 -781 43 -18 68 -18 109 2 35 16 65 65 65
104 0 59 16 41 -1190 1340 -135 146 -450 486 -699 755 -250 270 -472 510 -495
534 l-41 44 67 -37 c37 -20 191 -94 343 -165 443 -207 593 -302 770 -489 318
-336 417 -416 670 -542 155 -77 256 -114 620 -225 239 -74 321 -136 414 -313
73 -139 109 -164 180 -127 73 37 81 172 17 310 -48 104 -110 188 -201 273
-136 127 -223 176 -488 276 -373 140 -545 264 -874 634 -268 301 -457 444
-843 637 -202 101 -449 249 -436 262 2 2 59 -17 127 -43 168 -63 531 -197 659
-244 58 -21 276 -102 485 -180 1659 -617 2107 -780 2144 -780 57 0 88 15 111
52 26 43 25 87 -2 129 -27 40 -93 75 -473 248 -143 66 -537 246 -875 401 -338
156 -725 333 -860 395 -135 62 -413 190 -619 284 -206 95 -382 177 -390 182
-11 7 2 8 44 5 33 -4 202 -13 375 -21 555 -26 689 -53 1000 -200 236 -111 385
-159 588 -190 145 -21 433 -19 662 5 397 43 472 26 685 -151 70 -58 119 -66
160 -25 50 50 42 130 -23 225 -78 114 -261 229 -457 287 -88 26 -99 27 -460
34 -319 7 -382 11 -455 28 -204 48 -314 89 -580 216 -397 190 -563 233 -1063
276 -232 20 -371 39 -452 62 -22 6 -33 13 -25 14 8 2 152 8 320 14 168 5 604
21 970 35 1243 47 1985 75 2145 81 225 9 280 36 280 136 0 43 -4 53 -32 78
-18 16 -49 33 -70 39 -21 5 -780 37 -1688 70 -907 34 -1693 64 -1745 67 l-95
7 60 17 c74 22 250 83 410 143 245 91 437 146 600 173 28 5 210 9 405 9 331 0
362 2 460 23 221 48 369 103 600 225 317 166 401 206 458 218 82 17 211 6 301
-25 97 -34 154 -34 186 -1 29 28 33 80 11 124 -22 43 -92 100 -160 132 -113
52 -176 64 -346 63 -201 -1 -282 -22 -555 -143 -205 -91 -311 -127 -465 -158
-89 -18 -343 -22 -800 -14 -304 5 -461 -21 -830 -138 -102 -33 -217 -69 -255
-80 -86 -25 -266 -63 -272 -57 -3 2 15 13 39 24 43 19 465 213 1103 506 187
86 740 340 1229 564 642 294 899 417 928 442 90 80 43 210 -77 210 -44 0 -20
9 -1120 -400 -506 -188 -1143 -424 -1415 -525 -272 -101 -562 -208 -644 -239
-82 -31 -151 -55 -152 -53 -2 2 27 28 64 59 37 30 137 120 222 198 236 217
365 325 479 402 136 91 227 136 391 193 455 159 677 324 1047 776 170 208 219
256 308 300 63 31 185 58 265 59 124 1 177 96 98 177 -48 49 -114 68 -238 67
-160 0 -315 -51 -477 -156 -96 -63 -162 -122 -288 -258 -190 -205 -326 -311
-531 -414 -132 -65 -205 -95 -424 -171 -262 -91 -458 -191 -642 -327 -45 -33
-163 -129 -262 -212 -180 -151 -285 -231 -361 -276 -35 -22 -38 -22 -25 -4 8
11 557 604 1220 1318 663 714 1215 1316 1228 1338 39 72 21 142 -46 174 -42
20 -89 14 -135 -18 -19 -13 -308 -277 -643 -588 -335 -311 -890 -825 -1234
-1144 -344 -318 -645 -597 -669 -620 l-44 -41 32 57 c17 31 92 185 165 342
242 517 326 638 635 916 52 46 128 125 169 175 200 240 293 438 457 980 72
238 135 321 313 414 139 73 164 109 127 180 -46 91 -222 77 -402 -30 -77 -47
-191 -155 -263 -251 -72 -95 -120 -192 -195 -393 -136 -367 -264 -543 -630
-869 -309 -276 -417 -418 -640 -846 -136 -261 -249 -449 -262 -436 -2 2 46
138 108 302 103 278 223 603 888 2396 172 465 251 690 251 717 0 57 -15 88
-52 111 -69 42 -143 12 -190 -75 -14 -28 -342 -738 -728 -1580 -386 -841 -709
-1541 -717 -1555 -13 -23 -14 -21 -8 35 3 33 12 201 20 373 27 560 52 687 200
1002 111 237 159 384 190 590 23 149 21 419 -4 655 -44 403 -29 469 151 692
66 80 65 143 -2 178 -58 30 -134 9 -223 -61 -107 -83 -207 -251 -263 -439 -26
-88 -27 -98 -34 -460 -7 -319 -11 -382 -28 -455 -48 -203 -90 -316 -213 -572
-192 -401 -235 -565 -279 -1073 -21 -236 -40 -372 -62 -450 -13 -45 -15 -22
-38 590 -6 165 -15 410 -20 545 -6 135 -28 733 -50 1330 -23 615 -45 1103 -51
1127 -20 75 -101 121 -165 94z"/>
</g>
</svg>
